<svg xmlns="http://www.w3.org/2000/svg" width="500" height="500" viewBox="0 0 500 500">
  <!-- Background elements -->
  <rect x="0" y="0" width="500" height="500" fill="#f0f4ff" opacity="0.5"/>
  
  <!-- Abstract shapes -->
  <circle cx="250" cy="250" r="150" fill="#1E3A8A" opacity="0.1"/>
  <circle cx="200" cy="200" r="100" fill="#F97316" opacity="0.1"/>
  <circle cx="300" cy="300" r="100" fill="#22C55E" opacity="0.1"/>
  
  <!-- Book stack -->
  <rect x="150" y="280" width="200" height="30" rx="5" fill="#1E3A8A"/>
  <rect x="160" y="250" width="180" height="30" rx="5" fill="#F97316"/>
  <rect x="170" y="220" width="160" height="30" rx="5" fill="#22C55E"/>
  <rect x="180" y="190" width="140" height="30" rx="5" fill="#1E3A8A"/>
  
  <!-- Graduation cap -->
  <rect x="220" y="150" width="60" height="10" fill="#1E3A8A"/>
  <polygon points="250,120 220,150 280,150" fill="#1E3A8A"/>
  <circle cx="250" cy="120" r="10" fill="#1E3A8A"/>
  <line x1="250" y1="150" x2="250" y2="170" stroke="#1E3A8A" stroke-width="2"/>
  <circle cx="250" cy="170" r="5" fill="#F97316"/>
  
  <!-- Students silhouettes -->
  <circle cx="180" cy="350" r="20" fill="#1E3A8A"/>
  <rect x="170" y="370" width="20" height="40" fill="#1E3A8A"/>
  
  <circle cx="220" cy="350" r="20" fill="#F97316"/>
  <rect x="210" y="370" width="20" height="40" fill="#F97316"/>
  
  <circle cx="260" cy="350" r="20" fill="#22C55E"/>
  <rect x="250" y="370" width="20" height="40" fill="#22C55E"/>
  
  <!-- Digital elements -->
  <rect x="300" y="330" width="60" height="40" rx="5" fill="#1E3A8A"/>
  <rect x="305" y="335" width="50" height="30" rx="3" fill="white"/>
  <line x1="310" y1="345" x2="350" y2="345" stroke="#1E3A8A" stroke-width="2"/>
  <line x1="310" y1="350" x2="340" y2="350" stroke="#1E3A8A" stroke-width="2"/>
  <line x1="310" y1="355" x2="330" y2="355" stroke="#1E3A8A" stroke-width="2"/>
  
  <!-- Connection lines -->
  <line x1="200" y1="350" x2="240" y2="350" stroke="#475569" stroke-width="1" stroke-dasharray="5,5"/>
  <line x1="240" y1="350" x2="280" y2="350" stroke="#475569" stroke-width="1" stroke-dasharray="5,5"/>
  <line x1="280" y1="350" x2="300" y2="350" stroke="#475569" stroke-width="1" stroke-dasharray="5,5"/>
</svg>